<svg width="88" height="88" viewBox="0 0 88 88" fill="none" xmlns="http://www.w3.org/2000/svg">
<path d="M28.4592 16.9532C31.0894 16.7433 33.5863 15.7091 35.5946 13.9979C37.8639 12.0629 40.7486 11 43.7309 11C46.7132 11 49.5979 12.0629 51.8672 13.9979C53.8755 15.7091 56.3724 16.7433 59.0026 16.9532C61.9753 17.1897 64.7665 18.4779 66.8752 20.5866C68.9839 22.6953 70.2721 25.4865 70.5086 28.4592C70.7185 31.0894 71.7527 33.5863 73.4639 35.5946C75.3989 37.8639 76.4618 40.7486 76.4618 43.7309C76.4618 46.7132 75.3989 49.5979 73.4639 51.8672C71.7527 53.8755 70.7185 56.3724 70.5086 59.0026C70.2721 61.9753 68.9839 64.7665 66.8752 66.8752C64.7665 68.9839 61.9753 70.2721 59.0026 70.5086C56.3724 70.7185 53.8755 71.7527 51.8672 73.4639C49.5979 75.3989 46.7132 76.4618 43.7309 76.4618C40.7486 76.4618 37.8639 75.3989 35.5946 73.4639C33.5863 71.7527 31.0894 70.7185 28.4592 70.5086C25.4865 70.2721 22.6953 68.9839 20.5866 66.8752C18.4779 64.7665 17.1897 61.9753 16.9532 59.0026C16.7433 56.3724 15.7091 53.8755 13.9979 51.8672C12.0629 49.5979 11 46.7132 11 43.7309C11 40.7486 12.0629 37.8639 13.9979 35.5946C15.7091 33.5863 16.7433 31.0894 16.9532 28.4592C17.1897 25.4865 18.4779 22.6953 20.5866 20.5866C22.6953 18.4779 25.4865 17.1897 28.4592 16.9532Z" fill="#D9D389" stroke="#0F2615" stroke-width="5" stroke-linecap="round" stroke-linejoin="round"/>
<path d="M30.95 31.442C31.874 31.442 32.606 31.64 33.146 32.036C33.686 32.432 33.956 32.996 33.956 33.728C33.956 34.196 33.836 34.622 33.596 35.006C33.368 35.39 33.062 35.756 32.678 36.104C32.294 36.44 31.88 36.758 31.436 37.058C31.004 37.358 30.584 37.658 30.176 37.958C29.768 38.246 29.42 38.546 29.132 38.858H33.02C33.512 38.858 33.824 38.798 33.956 38.678C34.088 38.558 34.178 38.348 34.226 38.048H34.604C34.604 38.852 34.61 39.476 34.622 39.92C34.634 40.364 34.652 40.754 34.676 41.09C34.568 41.066 34.37 41.048 34.082 41.036C33.794 41.024 33.464 41.012 33.092 41C32.72 41 32.354 41 31.994 41H26.756V40.658C27.092 40.298 27.506 39.902 27.998 39.47C28.49 39.038 28.97 38.558 29.438 38.03C29.918 37.502 30.32 36.932 30.644 36.32C30.968 35.696 31.13 35.03 31.13 34.322C31.13 33.674 30.986 33.206 30.698 32.918C30.41 32.63 29.996 32.486 29.456 32.486C28.94 32.486 28.484 32.606 28.088 32.846C27.704 33.074 27.356 33.416 27.044 33.872L26.738 33.692C26.978 33.284 27.278 32.912 27.638 32.576C28.01 32.228 28.466 31.952 29.006 31.748C29.546 31.544 30.194 31.442 30.95 31.442ZM41.3259 31.442C42.2859 31.442 43.1319 31.64 43.8639 32.036C44.5959 32.42 45.1719 32.972 45.5919 33.692C46.0119 34.4 46.2219 35.234 46.2219 36.194C46.2219 37.154 46.0059 38.018 45.5739 38.786C45.1539 39.542 44.5599 40.142 43.7919 40.586C43.0359 41.03 42.1479 41.252 41.1279 41.252C40.1919 41.252 39.3519 41.054 38.6079 40.658C37.8759 40.262 37.2939 39.71 36.8619 39.002C36.4419 38.282 36.2319 37.442 36.2319 36.482C36.2319 35.534 36.4419 34.682 36.8619 33.926C37.2819 33.158 37.8759 32.552 38.6439 32.108C39.4119 31.664 40.3059 31.442 41.3259 31.442ZM41.1639 31.766C40.5159 31.766 39.9819 32.18 39.5619 33.008C39.1539 33.824 38.9499 34.964 38.9499 36.428C38.9499 37.508 39.0579 38.378 39.2739 39.038C39.4899 39.698 39.7719 40.178 40.1199 40.478C40.4799 40.778 40.8699 40.928 41.2899 40.928C41.9379 40.928 42.4659 40.514 42.8739 39.686C43.2939 38.858 43.5039 37.712 43.5039 36.248C43.5039 35.168 43.3959 34.298 43.1799 33.638C42.9639 32.978 42.6759 32.504 42.3159 32.216C41.9679 31.916 41.5839 31.766 41.1639 31.766ZM50.5514 27.302C51.4154 27.302 52.1174 27.56 52.6574 28.076C53.1974 28.592 53.4674 29.312 53.4674 30.236C53.4674 30.836 53.3414 31.364 53.0894 31.82C52.8374 32.276 52.4894 32.63 52.0454 32.882C51.6134 33.134 51.1154 33.26 50.5514 33.26C49.6874 33.26 48.9794 33.002 48.4274 32.486C47.8874 31.97 47.6174 31.25 47.6174 30.326C47.6174 29.726 47.7434 29.198 47.9954 28.742C48.2594 28.286 48.6074 27.932 49.0394 27.68C49.4834 27.428 49.9874 27.302 50.5514 27.302ZM56.5634 35.618C56.1794 35.618 55.8854 35.846 55.6814 36.302C55.4894 36.758 55.3934 37.424 55.3934 38.3C55.3934 39.176 55.5014 39.836 55.7174 40.28C55.9454 40.712 56.2514 40.928 56.6354 40.928C57.0314 40.928 57.3194 40.7 57.4994 40.244C57.6914 39.788 57.7874 39.128 57.7874 38.264C57.7874 37.376 57.6794 36.716 57.4634 36.284C57.2474 35.84 56.9474 35.618 56.5634 35.618ZM56.5994 35.294C57.4634 35.294 58.1654 35.552 58.7054 36.068C59.2454 36.584 59.5154 37.304 59.5154 38.228C59.5154 38.828 59.3894 39.356 59.1374 39.812C58.8854 40.268 58.5374 40.622 58.0934 40.874C57.6614 41.126 57.1634 41.252 56.5994 41.252C55.7354 41.252 55.0274 40.994 54.4754 40.478C53.9354 39.962 53.6654 39.242 53.6654 38.318C53.6654 37.718 53.7914 37.19 54.0434 36.734C54.3074 36.278 54.6554 35.924 55.0874 35.672C55.5314 35.42 56.0354 35.294 56.5994 35.294ZM50.5154 27.626C50.1314 27.626 49.8374 27.854 49.6334 28.31C49.4414 28.766 49.3454 29.432 49.3454 30.308C49.3454 31.184 49.4534 31.844 49.6694 32.288C49.8974 32.72 50.2034 32.936 50.5874 32.936C50.9834 32.936 51.2714 32.708 51.4514 32.252C51.6434 31.796 51.7394 31.136 51.7394 30.272C51.7394 29.384 51.6314 28.724 51.4154 28.292C51.1994 27.848 50.8994 27.626 50.5154 27.626ZM58.7594 26.168L59.1014 26.402L48.5714 41.99L48.2294 41.756L58.7594 26.168ZM33.146 48.004C34.418 48.004 35.528 48.262 36.476 48.778C37.436 49.294 38.18 50.038 38.708 51.01C39.236 51.97 39.5 53.14 39.5 54.52C39.5 55.864 39.23 57.04 38.69 58.048C38.15 59.056 37.394 59.842 36.422 60.406C35.462 60.97 34.364 61.252 33.128 61.252C31.856 61.252 30.74 60.994 29.78 60.478C28.832 59.962 28.094 59.218 27.566 58.246C27.038 57.274 26.774 56.104 26.774 54.736C26.774 53.392 27.044 52.216 27.584 51.208C28.136 50.2 28.886 49.414 29.834 48.85C30.794 48.286 31.898 48.004 33.146 48.004ZM33.074 48.328C32.402 48.328 31.814 48.598 31.31 49.138C30.818 49.678 30.434 50.422 30.158 51.37C29.894 52.318 29.762 53.416 29.762 54.664C29.762 55.936 29.912 57.046 30.212 57.994C30.524 58.93 30.938 59.656 31.454 60.172C31.982 60.676 32.564 60.928 33.2 60.928C33.872 60.928 34.454 60.658 34.946 60.118C35.45 59.578 35.834 58.834 36.098 57.886C36.374 56.926 36.512 55.828 36.512 54.592C36.512 53.308 36.356 52.198 36.044 51.262C35.744 50.326 35.33 49.606 34.802 49.102C34.286 48.586 33.71 48.328 33.074 48.328ZM50.3748 48.256C50.3268 48.796 50.2908 49.318 50.2668 49.822C50.2548 50.326 50.2488 50.716 50.2488 50.992C50.2488 51.256 50.2548 51.508 50.2668 51.748C50.2788 51.988 50.2908 52.192 50.3028 52.36H49.8888C49.7328 51.424 49.5168 50.692 49.2408 50.164C48.9648 49.624 48.6228 49.24 48.2148 49.012C47.8188 48.784 47.3448 48.67 46.7928 48.67H46.1988C45.8508 48.67 45.5868 48.7 45.4068 48.76C45.2268 48.82 45.1068 48.94 45.0468 49.12C44.9868 49.3 44.9568 49.576 44.9568 49.948V58.984C44.9568 59.452 45.0048 59.8 45.1008 60.028C45.1968 60.256 45.3828 60.406 45.6588 60.478C45.9348 60.55 46.3428 60.592 46.8828 60.604V61C46.5108 60.988 46.0308 60.976 45.4428 60.964C44.8548 60.952 44.2368 60.946 43.5888 60.946C43.0728 60.946 42.5688 60.952 42.0768 60.964C41.5848 60.976 41.1408 60.988 40.7448 61V60.64C41.1288 60.616 41.4168 60.568 41.6088 60.496C41.8008 60.424 41.9268 60.28 41.9868 60.064C42.0588 59.848 42.0948 59.524 42.0948 59.092V50.164C42.0948 49.72 42.0588 49.396 41.9868 49.192C41.9268 48.976 41.7948 48.832 41.5908 48.76C41.3988 48.676 41.1168 48.628 40.7448 48.616V48.256C41.2368 48.268 41.7588 48.28 42.3108 48.292C42.8628 48.292 43.4088 48.298 43.9488 48.31C44.4888 48.31 44.9928 48.31 45.4608 48.31C45.9288 48.31 46.3128 48.31 46.6128 48.31C47.1648 48.31 47.7888 48.31 48.4848 48.31C49.1928 48.298 49.8228 48.28 50.3748 48.256ZM47.6928 54.484C47.6928 54.484 47.6928 54.544 47.6928 54.664C47.6928 54.784 47.6928 54.844 47.6928 54.844H44.4168C44.4168 54.844 44.4168 54.784 44.4168 54.664C44.4168 54.544 44.4168 54.484 44.4168 54.484H47.6928ZM48.1428 52.108C48.0948 52.792 48.0708 53.314 48.0708 53.674C48.0828 54.034 48.0888 54.364 48.0888 54.664C48.0888 54.964 48.0948 55.294 48.1068 55.654C48.1188 56.014 48.1488 56.536 48.1968 57.22H47.7828C47.7108 56.8 47.5968 56.41 47.4408 56.05C47.2848 55.69 47.0568 55.402 46.7568 55.186C46.4568 54.958 46.0668 54.844 45.5868 54.844V54.484C45.9468 54.484 46.2468 54.412 46.4868 54.268C46.7388 54.112 46.9488 53.914 47.1168 53.674C47.2848 53.422 47.4168 53.158 47.5128 52.882C47.6088 52.606 47.6808 52.348 47.7288 52.108H48.1428ZM61.0272 48.256C60.9792 48.796 60.9432 49.318 60.9192 49.822C60.9072 50.326 60.9012 50.716 60.9012 50.992C60.9012 51.256 60.9072 51.508 60.9192 51.748C60.9312 51.988 60.9432 52.192 60.9552 52.36H60.5412C60.3852 51.424 60.1692 50.692 59.8932 50.164C59.6172 49.624 59.2752 49.24 58.8672 49.012C58.4712 48.784 57.9972 48.67 57.4452 48.67H56.8512C56.5032 48.67 56.2392 48.7 56.0592 48.76C55.8792 48.82 55.7592 48.94 55.6992 49.12C55.6392 49.3 55.6092 49.576 55.6092 49.948V58.984C55.6092 59.452 55.6572 59.8 55.7532 60.028C55.8492 60.256 56.0352 60.406 56.3112 60.478C56.5872 60.55 56.9952 60.592 57.5352 60.604V61C57.1632 60.988 56.6832 60.976 56.0952 60.964C55.5072 60.952 54.8892 60.946 54.2412 60.946C53.7252 60.946 53.2212 60.952 52.7292 60.964C52.2372 60.976 51.7932 60.988 51.3972 61V60.64C51.7812 60.616 52.0692 60.568 52.2612 60.496C52.4532 60.424 52.5792 60.28 52.6392 60.064C52.7112 59.848 52.7472 59.524 52.7472 59.092V50.164C52.7472 49.72 52.7112 49.396 52.6392 49.192C52.5792 48.976 52.4472 48.832 52.2432 48.76C52.0512 48.676 51.7692 48.628 51.3972 48.616V48.256C51.8892 48.268 52.4112 48.28 52.9632 48.292C53.5152 48.292 54.0612 48.298 54.6012 48.31C55.1412 48.31 55.6452 48.31 56.1132 48.31C56.5812 48.31 56.9652 48.31 57.2652 48.31C57.8172 48.31 58.4412 48.31 59.1372 48.31C59.8452 48.298 60.4752 48.28 61.0272 48.256ZM58.3452 54.484C58.3452 54.484 58.3452 54.544 58.3452 54.664C58.3452 54.784 58.3452 54.844 58.3452 54.844H55.0692C55.0692 54.844 55.0692 54.784 55.0692 54.664C55.0692 54.544 55.0692 54.484 55.0692 54.484H58.3452ZM58.7952 52.108C58.7472 52.792 58.7232 53.314 58.7232 53.674C58.7352 54.034 58.7412 54.364 58.7412 54.664C58.7412 54.964 58.7472 55.294 58.7592 55.654C58.7712 56.014 58.8012 56.536 58.8492 57.22H58.4352C58.3632 56.8 58.2492 56.41 58.0932 56.05C57.9372 55.69 57.7092 55.402 57.4092 55.186C57.1092 54.958 56.7192 54.844 56.2392 54.844V54.484C56.5992 54.484 56.8992 54.412 57.1392 54.268C57.3912 54.112 57.6012 53.914 57.7692 53.674C57.9372 53.422 58.0692 53.158 58.1652 52.882C58.2612 52.606 58.3332 52.348 58.3812 52.108H58.7952Z" fill="#0F2615"/>
</svg>
