<svg width="204" height="41" viewBox="0 0 204 41" fill="none" xmlns="http://www.w3.org/2000/svg">
<path d="M32.5005 24.1927C31.0259 25.1264 29.3323 25.6174 27.6066 25.6116C26.161 25.5997 24.7316 25.2917 23.4 24.7052C22.3738 26.2143 21.8245 28.0192 21.8287 29.8686V34.5916C21.8291 34.7673 21.7948 34.9411 21.7279 35.1024C21.6611 35.2636 21.5631 35.4088 21.4401 35.529C21.3172 35.6491 21.1718 35.7417 21.013 35.8008C20.8542 35.86 20.6855 35.8845 20.5172 35.8729C20.2011 35.8442 19.907 35.6921 19.694 35.447C19.481 35.202 19.3648 34.8821 19.3687 34.5516V32.5592L13.4309 26.374C12.5482 26.717 11.6147 26.8964 10.6726 26.9041C9.37569 26.9074 8.10305 26.5378 6.99492 25.8359C3.64471 23.7154 1.84122 18.8354 2.19023 12.7767C2.2078 12.4633 2.33526 12.1675 2.5484 11.9454C2.76154 11.7234 3.04552 11.5907 3.34643 11.5724C9.1628 11.2152 13.8476 13.0874 15.8771 16.5772C16.6744 17.9451 17.0225 19.5462 16.8687 21.1385C16.8592 21.2619 16.8155 21.3797 16.743 21.4778C16.6706 21.5758 16.5723 21.6499 16.4603 21.6911C16.3482 21.7323 16.2271 21.7387 16.1116 21.7097C15.9961 21.6807 15.8912 21.6175 15.8094 21.5277L12.8574 18.3085C12.6249 18.0784 12.3152 17.952 11.9945 17.9563C11.6737 17.9605 11.3673 18.0952 11.1405 18.3314C10.9137 18.5677 10.7844 18.8869 10.7803 19.221C10.7762 19.5551 10.8976 19.8777 11.1185 20.1199L19.4025 28.9685C19.4118 28.8436 19.4225 28.7187 19.4348 28.5954C19.7038 26.2198 20.7101 24.0008 22.3007 22.2756L30.0789 13.7136C30.3097 13.4734 30.4395 13.1476 30.4396 12.8077C30.4398 12.4679 30.3103 12.1419 30.0797 11.9015C29.8491 11.6611 29.5363 11.5259 29.21 11.5258C28.8838 11.5256 28.5708 11.6605 28.34 11.9007L20.8063 20.2C20.7309 20.2832 20.6354 20.3438 20.5299 20.3756C20.4244 20.4074 20.3126 20.4091 20.2062 20.3807C20.0998 20.3523 20.0027 20.2946 19.9249 20.2139C19.8471 20.1331 19.7915 20.032 19.7639 19.9213C19.0351 17.1218 19.3564 14.335 20.7479 11.9423C23.4938 7.22091 29.8837 4.69364 37.8418 5.18052C38.1427 5.19882 38.4267 5.33159 38.6398 5.55361C38.853 5.77563 38.9804 6.07144 38.998 6.38489C39.4592 14.6762 37.0331 21.3323 32.5005 24.1927Z" fill="#D9D389"/>
<path d="M55.2343 32.1759C54.7794 32.1759 54.3596 32.0009 53.9747 31.6511C53.5899 31.3362 53.3975 30.9513 53.3975 30.4965V13.5455C53.3975 12.6008 53.6948 11.8836 54.2896 11.3938C54.8844 10.904 55.5491 10.6591 56.2839 10.6591H61.8467C63.0363 10.6591 64.1384 10.904 65.153 11.3938C66.2026 11.8486 67.0423 12.5309 67.672 13.4405C68.3018 14.3502 68.6167 15.4697 68.6167 16.7992C68.6167 18.8634 67.9519 20.5078 66.6224 21.7323C65.3279 22.9569 63.7535 23.5691 61.8992 23.5691H58.3831C57.5084 23.5691 57.0711 24.0939 57.0711 25.1435V30.4965C57.0711 30.9513 56.8786 31.3362 56.4938 31.6511C56.1439 32.0009 55.7241 32.1759 55.2343 32.1759ZM58.1207 20.4203H61.3219C62.1966 20.4203 63.0363 20.1579 63.841 19.6331C64.6807 19.1083 65.1005 18.1987 65.1005 16.9042C65.1005 15.8896 64.7156 15.1374 63.9459 14.6475C63.2112 14.1227 62.4065 13.8603 61.5319 13.8603H58.2781C57.4034 13.8603 56.9661 14.2802 56.9661 15.1199V19.0034C56.9661 19.948 57.351 20.4203 58.1207 20.4203Z" fill="#D9D389"/>
<path d="M73.8306 32.1759C73.3758 32.1759 72.956 32.0359 72.5711 31.756C72.2212 31.4761 72.0463 31.0738 72.0463 30.549V10.6066C72.0463 10.0118 72.2212 9.57448 72.5711 9.29459C72.956 8.97971 73.3758 8.82227 73.8306 8.82227C74.2855 8.82227 74.6878 8.97971 75.0377 9.29459C75.4225 9.57448 75.615 10.0118 75.615 10.6066V30.549C75.615 31.0738 75.4225 31.4761 75.0377 31.756C74.6878 32.0359 74.2855 32.1759 73.8306 32.1759Z" fill="#D9D389"/>
<path d="M86.7087 32.1759C85.2043 32.1759 83.8573 31.826 82.6678 31.1263C81.4782 30.4265 80.5511 29.4644 79.8863 28.2399C79.2216 26.9803 78.8892 25.5809 78.8892 24.0415C78.8892 22.537 79.2216 21.1901 79.8863 20.0005C80.5511 18.811 81.4782 17.8838 82.6678 17.2191C83.8573 16.5193 85.2043 16.1695 86.7087 16.1695C87.6884 16.1695 88.563 16.3444 89.3327 16.6943C90.1024 17.0091 90.7672 17.429 91.327 17.9538C91.3969 17.464 91.6069 17.0966 91.9567 16.8517C92.3066 16.5718 92.6915 16.4319 93.1113 16.4319C93.5661 16.4319 93.9685 16.5893 94.3183 16.9042C94.7032 17.1841 94.8956 17.6214 94.8956 18.2162V30.549C94.8956 31.0738 94.7032 31.4761 94.3183 31.756C93.9685 32.0359 93.5661 32.1759 93.1113 32.1759C92.6565 32.1759 92.2366 32.0359 91.8518 31.756C91.5019 31.4761 91.327 31.0738 91.327 30.549V30.3391C90.7672 30.8989 90.1024 31.3362 89.3327 31.6511C88.563 32.0009 87.6884 32.1759 86.7087 32.1759ZM87.0236 28.9221C88.3531 28.9221 89.4027 28.4848 90.1724 27.6101C90.9421 26.7005 91.327 25.5109 91.327 24.0415C91.327 22.642 90.9421 21.5224 90.1724 20.6827C89.4027 19.8431 88.3531 19.4232 87.0236 19.4232C85.6591 19.4232 84.5571 19.8431 83.7174 20.6827C82.8777 21.5224 82.4579 22.642 82.4579 24.0415C82.4579 25.5109 82.8777 26.7005 83.7174 27.6101C84.5571 28.4848 85.6591 28.9221 87.0236 28.9221Z" fill="#D9D389"/>
<path d="M112.023 32.1759C111.568 32.1759 111.148 32.0359 110.763 31.756C110.413 31.4761 110.238 31.0738 110.238 30.549V23.9365C110.238 22.3971 109.888 21.26 109.189 20.5253C108.524 19.7906 107.632 19.4232 106.512 19.4232C105.078 19.4232 104.028 19.8955 103.363 20.8402C102.734 21.7498 102.419 22.7645 102.419 23.884V30.549C102.419 31.0738 102.226 31.4761 101.841 31.756C101.492 32.0359 101.089 32.1759 100.634 32.1759C100.18 32.1759 99.7597 32.0359 99.3749 31.756C99.025 31.4761 98.8501 31.0738 98.8501 30.549V18.2162C98.8501 17.6214 99.025 17.1841 99.3749 16.9042C99.7597 16.5893 100.18 16.4319 100.634 16.4319C101.089 16.4319 101.492 16.5893 101.841 16.9042C102.226 17.1841 102.419 17.6214 102.419 18.2162C103.013 17.6214 103.783 17.1316 104.728 16.7467C105.672 16.3619 106.565 16.1695 107.404 16.1695C109.364 16.1695 110.92 16.7992 112.075 18.0587C113.23 19.3183 113.807 21.1726 113.807 23.6216V30.549C113.807 31.0738 113.614 31.4761 113.23 31.756C112.845 32.0359 112.442 32.1759 112.023 32.1759Z" fill="#D9D389"/>
<path d="M123.692 32.1759C122.327 32.1759 121.208 31.756 120.333 30.9163C119.458 30.0767 119.021 28.8171 119.021 27.1378V20.4728C119.021 20.123 118.846 19.948 118.496 19.948H117.551C117.097 19.948 116.712 19.8081 116.397 19.5282C116.082 19.2133 115.925 18.8285 115.925 18.3736C115.925 17.8838 116.082 17.4815 116.397 17.1666C116.712 16.8517 117.097 16.6943 117.551 16.6943H118.496C118.846 16.6943 119.021 16.5193 119.021 16.1695V11.7611C119.021 11.2713 119.178 10.8865 119.493 10.6066C119.843 10.2917 120.263 10.1343 120.753 10.1343C121.277 10.1343 121.697 10.2917 122.012 10.6066C122.362 10.8865 122.537 11.2713 122.537 11.7611V16.1695C122.537 16.5193 122.712 16.6943 123.062 16.6943H125.896C126.316 16.6943 126.683 16.8517 126.998 17.1666C127.313 17.4815 127.47 17.8838 127.47 18.3736C127.47 18.8285 127.313 19.2133 126.998 19.5282C126.718 19.8081 126.333 19.948 125.843 19.948H123.062C122.712 19.948 122.537 20.123 122.537 20.4728V26.6655C122.537 28.1349 123.132 28.8696 124.321 28.8696C124.671 28.8696 125.039 28.8171 125.423 28.7122C125.808 28.6072 126.071 28.5547 126.211 28.5547C126.7 28.5547 127.068 28.7122 127.313 29.0271C127.593 29.3419 127.733 29.7093 127.733 30.1291C127.733 30.444 127.645 30.7589 127.47 31.0738C127.295 31.3537 127.015 31.5636 126.63 31.7035C126.246 31.8435 125.756 31.9485 125.161 32.0184C124.601 32.1234 124.111 32.1759 123.692 32.1759Z" fill="#D9D389"/>
<path d="M137.139 32.1759C135.634 32.1759 134.287 31.826 133.098 31.1263C131.908 30.4265 130.981 29.4644 130.316 28.2399C129.652 26.9803 129.319 25.5809 129.319 24.0415C129.319 22.537 129.652 21.1901 130.316 20.0005C130.981 18.811 131.908 17.8838 133.098 17.2191C134.287 16.5193 135.634 16.1695 137.139 16.1695C138.118 16.1695 138.993 16.3444 139.763 16.6943C140.532 17.0091 141.197 17.429 141.757 17.9538C141.827 17.464 142.037 17.0966 142.387 16.8517C142.737 16.5718 143.121 16.4319 143.541 16.4319C143.996 16.4319 144.398 16.5893 144.748 16.9042C145.133 17.1841 145.326 17.6214 145.326 18.2162V30.549C145.326 31.0738 145.133 31.4761 144.748 31.756C144.398 32.0359 143.996 32.1759 143.541 32.1759C143.086 32.1759 142.667 32.0359 142.282 31.756C141.932 31.4761 141.757 31.0738 141.757 30.549V30.3391C141.197 30.8989 140.532 31.3362 139.763 31.6511C138.993 32.0009 138.118 32.1759 137.139 32.1759ZM137.454 28.9221C138.783 28.9221 139.833 28.4848 140.602 27.6101C141.372 26.7005 141.757 25.5109 141.757 24.0415C141.757 22.642 141.372 21.5224 140.602 20.6827C139.833 19.8431 138.783 19.4232 137.454 19.4232C136.089 19.4232 134.987 19.8431 134.147 20.6827C133.308 21.5224 132.888 22.642 132.888 24.0415C132.888 25.5109 133.308 26.7005 134.147 27.6101C134.987 28.4848 136.089 28.9221 137.454 28.9221Z" fill="#D9D389"/>
<path d="M155.21 32.1759C153.846 32.1759 152.726 31.756 151.852 30.9163C150.977 30.0767 150.54 28.8171 150.54 27.1378V20.4728C150.54 20.123 150.365 19.948 150.015 19.948H149.07C148.615 19.948 148.23 19.8081 147.916 19.5282C147.601 19.2133 147.443 18.8285 147.443 18.3736C147.443 17.8838 147.601 17.4815 147.916 17.1666C148.23 16.8517 148.615 16.6943 149.07 16.6943H150.015C150.365 16.6943 150.54 16.5193 150.54 16.1695V11.7611C150.54 11.2713 150.697 10.8865 151.012 10.6066C151.362 10.2917 151.782 10.1343 152.271 10.1343C152.796 10.1343 153.216 10.2917 153.531 10.6066C153.881 10.8865 154.056 11.2713 154.056 11.7611V16.1695C154.056 16.5193 154.231 16.6943 154.581 16.6943H157.414C157.834 16.6943 158.202 16.8517 158.517 17.1666C158.831 17.4815 158.989 17.8838 158.989 18.3736C158.989 18.8285 158.831 19.2133 158.517 19.5282C158.237 19.8081 157.852 19.948 157.362 19.948H154.581C154.231 19.948 154.056 20.123 154.056 20.4728V26.6655C154.056 28.1349 154.651 28.8696 155.84 28.8696C156.19 28.8696 156.557 28.8171 156.942 28.7122C157.327 28.6072 157.589 28.5547 157.729 28.5547C158.219 28.5547 158.587 28.7122 158.831 29.0271C159.111 29.3419 159.251 29.7093 159.251 30.1291C159.251 30.444 159.164 30.7589 158.989 31.0738C158.814 31.3537 158.534 31.5636 158.149 31.7035C157.764 31.8435 157.275 31.9485 156.68 32.0184C156.12 32.1234 155.63 32.1759 155.21 32.1759Z" fill="#D9D389"/>
<path d="M163.724 32.1759C163.27 32.1759 162.85 32.0359 162.465 31.756C162.115 31.4761 161.94 31.0738 161.94 30.549V17.9538C161.94 17.359 162.115 16.9217 162.465 16.6418C162.85 16.3269 163.27 16.1695 163.724 16.1695C164.179 16.1695 164.582 16.3269 164.931 16.6418C165.316 16.9217 165.509 17.359 165.509 17.9538V30.549C165.509 31.0738 165.316 31.4761 164.931 31.756C164.582 32.0359 164.179 32.1759 163.724 32.1759ZM163.777 13.2831C163.112 13.2831 162.535 13.0731 162.045 12.6533C161.59 12.1985 161.363 11.6562 161.363 11.0264C161.363 10.4317 161.59 9.92435 162.045 9.50451C162.535 9.04968 163.112 8.82227 163.777 8.82227C164.407 8.82227 164.949 9.04968 165.404 9.50451C165.859 9.92435 166.086 10.4317 166.086 11.0264C166.086 11.6562 165.859 12.1985 165.404 12.6533C164.949 13.0731 164.407 13.2831 163.777 13.2831Z" fill="#D9D389"/>
<path d="M176.865 32.1759C175.325 32.1759 173.926 31.826 172.666 31.1263C171.442 30.4265 170.48 29.4644 169.78 28.2399C169.08 26.9803 168.73 25.5809 168.73 24.0415C168.73 22.537 169.08 21.1901 169.78 20.0005C170.48 18.811 171.442 17.8838 172.666 17.2191C173.926 16.5193 175.325 16.1695 176.865 16.1695C178.404 16.1695 179.786 16.5193 181.011 17.2191C182.235 17.8838 183.197 18.811 183.897 20.0005C184.632 21.1901 184.999 22.537 184.999 24.0415C184.999 25.5809 184.632 26.9803 183.897 28.2399C183.197 29.4644 182.235 30.4265 181.011 31.1263C179.786 31.826 178.404 32.1759 176.865 32.1759ZM176.865 28.9221C178.229 28.9221 179.331 28.4848 180.171 27.6101C181.011 26.7005 181.431 25.5109 181.431 24.0415C181.431 22.642 181.011 21.5224 180.171 20.6827C179.331 19.8431 178.229 19.4232 176.865 19.4232C175.465 19.4232 174.346 19.8431 173.506 20.6827C172.701 21.5224 172.299 22.642 172.299 24.0415C172.299 25.5109 172.701 26.7005 173.506 27.6101C174.346 28.4848 175.465 28.9221 176.865 28.9221Z" fill="#D9D389"/>
<path d="M201.3 32.1759C200.845 32.1759 200.425 32.0359 200.041 31.756C199.691 31.4761 199.516 31.0738 199.516 30.549V23.9365C199.516 22.3971 199.166 21.26 198.466 20.5253C197.801 19.7906 196.909 19.4232 195.79 19.4232C194.355 19.4232 193.306 19.8955 192.641 20.8402C192.011 21.7498 191.696 22.7645 191.696 23.884V30.549C191.696 31.0738 191.504 31.4761 191.119 31.756C190.769 32.0359 190.367 32.1759 189.912 32.1759C189.457 32.1759 189.037 32.0359 188.652 31.756C188.303 31.4761 188.128 31.0738 188.128 30.549V18.2162C188.128 17.6214 188.303 17.1841 188.652 16.9042C189.037 16.5893 189.457 16.4319 189.912 16.4319C190.367 16.4319 190.769 16.5893 191.119 16.9042C191.504 17.1841 191.696 17.6214 191.696 18.2162C192.291 17.6214 193.061 17.1316 194.005 16.7467C194.95 16.3619 195.842 16.1695 196.682 16.1695C198.641 16.1695 200.198 16.7992 201.353 18.0587C202.507 19.3183 203.084 21.1726 203.084 23.6216V30.549C203.084 31.0738 202.892 31.4761 202.507 31.756C202.122 32.0359 201.72 32.1759 201.3 32.1759Z" fill="#D9D389"/>
</svg>
